<mxfile host="65bd71144e">
    <diagram id="LdMgm2CrF7uUPISppwHO" name="Page-1">
        <mxGraphModel dx="4434" dy="2234" grid="0" gridSize="10" guides="1" tooltips="1" connect="1" arrows="1" fold="1" page="1" pageScale="1" pageWidth="1169" pageHeight="827" background="#ffffff" math="0" shadow="0">
            <root>
                <mxCell id="0"/>
                <mxCell id="1" parent="0"/>
                <mxCell id="100" value="" style="group" parent="1" vertex="1" connectable="0">
                    <mxGeometry x="159" y="75" width="646" height="1748" as="geometry"/>
                </mxCell>
                <mxCell id="173" value="" style="ellipse;whiteSpace=wrap;html=1;strokeColor=#000000;strokeWidth=2;fillColor=none;" vertex="1" parent="100">
                    <mxGeometry x="349" y="1502" width="120" height="80" as="geometry"/>
                </mxCell>
                <mxCell id="2" value="" style="rounded=0;whiteSpace=wrap;html=1;fillColor=none;strokeColor=#000000;strokeWidth=1;" parent="100" vertex="1">
                    <mxGeometry width="646" height="1748" as="geometry"/>
                </mxCell>
                <mxCell id="101" value="" style="group" parent="100" vertex="1" connectable="0">
                    <mxGeometry x="54" y="905" width="575" height="196" as="geometry"/>
                </mxCell>
                <mxCell id="93" value="" style="group" parent="101" vertex="1" connectable="0">
                    <mxGeometry x="147" width="260" height="193" as="geometry"/>
                </mxCell>
                <mxCell id="85" value="" style="ellipse;whiteSpace=wrap;html=1;strokeColor=#000000;strokeWidth=2;fillColor=none;" parent="93" vertex="1">
                    <mxGeometry x="2" width="120" height="80" as="geometry"/>
                </mxCell>
                <mxCell id="86" value="&lt;font style=&quot;font-size: 17px&quot;&gt;Read video / audio&lt;br&gt;&lt;/font&gt;" style="text;html=1;strokeColor=none;fillColor=none;align=center;verticalAlign=middle;whiteSpace=wrap;rounded=0;fontColor=#000000;" parent="93" vertex="1">
                    <mxGeometry x="17" y="3" width="90" height="74" as="geometry"/>
                </mxCell>
                <mxCell id="87" value="" style="ellipse;whiteSpace=wrap;html=1;strokeColor=#000000;strokeWidth=2;fillColor=none;" parent="93" vertex="1">
                    <mxGeometry y="113" width="120" height="80" as="geometry"/>
                </mxCell>
                <mxCell id="88" value="&lt;font style=&quot;font-size: 17px&quot;&gt;Toggle play button&lt;br&gt;&lt;/font&gt;" style="text;html=1;strokeColor=none;fillColor=none;align=center;verticalAlign=middle;whiteSpace=wrap;rounded=0;fontColor=#000000;" parent="93" vertex="1">
                    <mxGeometry x="15" y="116" width="90" height="74" as="geometry"/>
                </mxCell>
                <mxCell id="89" style="edgeStyle=none;html=1;exitX=0.5;exitY=0;exitDx=0;exitDy=0;fontSize=15;fontColor=#000000;strokeColor=#000000;strokeWidth=1;endArrow=none;endFill=0;" parent="93" edge="1">
                    <mxGeometry relative="1" as="geometry">
                        <mxPoint x="59.69999999999982" y="113.99999999999977" as="sourcePoint"/>
                        <mxPoint x="59.940000000000055" y="80" as="targetPoint"/>
                    </mxGeometry>
                </mxCell>
                <mxCell id="90" value="" style="ellipse;whiteSpace=wrap;html=1;strokeColor=#000000;strokeWidth=2;fillColor=none;" parent="93" vertex="1">
                    <mxGeometry x="140" y="113" width="120" height="80" as="geometry"/>
                </mxCell>
                <mxCell id="91" value="&lt;font style=&quot;font-size: 17px&quot;&gt;Volume Control&lt;br&gt;&lt;/font&gt;" style="text;html=1;strokeColor=none;fillColor=none;align=center;verticalAlign=middle;whiteSpace=wrap;rounded=0;fontColor=#000000;" parent="93" vertex="1">
                    <mxGeometry x="155" y="116" width="90" height="74" as="geometry"/>
                </mxCell>
                <mxCell id="92" style="edgeStyle=none;html=1;exitX=0.5;exitY=0;exitDx=0;exitDy=0;fontSize=15;fontColor=#000000;strokeColor=#000000;strokeWidth=1;endArrow=none;endFill=0;" parent="93" edge="1">
                    <mxGeometry relative="1" as="geometry">
                        <mxPoint x="199.63999999999987" y="113.99999999999977" as="sourcePoint"/>
                        <mxPoint x="60" y="93" as="targetPoint"/>
                        <Array as="points">
                            <mxPoint x="200" y="93"/>
                        </Array>
                    </mxGeometry>
                </mxCell>
                <mxCell id="94" value="" style="ellipse;whiteSpace=wrap;html=1;strokeColor=#000000;strokeWidth=2;fillColor=none;" parent="101" vertex="1">
                    <mxGeometry y="113" width="120" height="80" as="geometry"/>
                </mxCell>
                <mxCell id="95" value="&lt;font style=&quot;font-size: 17px&quot;&gt;handle seekbar&lt;br&gt;&lt;/font&gt;" style="text;html=1;strokeColor=none;fillColor=none;align=center;verticalAlign=middle;whiteSpace=wrap;rounded=0;fontColor=#000000;" parent="101" vertex="1">
                    <mxGeometry x="15" y="116" width="90" height="74" as="geometry"/>
                </mxCell>
                <mxCell id="97" value="&lt;font style=&quot;font-size: 17px&quot;&gt;Like video / audio&lt;br&gt;&lt;/font&gt;" style="text;html=1;strokeColor=none;fillColor=none;align=center;verticalAlign=middle;whiteSpace=wrap;rounded=0;fontColor=#000000;" parent="101" vertex="1">
                    <mxGeometry x="445" y="116" width="90" height="74" as="geometry"/>
                </mxCell>
                <mxCell id="98" style="edgeStyle=none;html=1;exitX=0.5;exitY=0;exitDx=0;exitDy=0;fontSize=15;fontColor=#000000;strokeColor=#000000;strokeWidth=1;endArrow=none;endFill=0;" parent="101" edge="1">
                    <mxGeometry relative="1" as="geometry">
                        <mxPoint x="491.6399999999999" y="112.99999999999977" as="sourcePoint"/>
                        <mxPoint x="206" y="92" as="targetPoint"/>
                        <Array as="points">
                            <mxPoint x="492" y="92"/>
                        </Array>
                    </mxGeometry>
                </mxCell>
                <mxCell id="99" value="" style="endArrow=none;html=1;fontSize=15;fontColor=#000000;strokeColor=#000000;strokeWidth=1;" parent="101" edge="1">
                    <mxGeometry width="50" height="50" relative="1" as="geometry">
                        <mxPoint x="52" y="113" as="sourcePoint"/>
                        <mxPoint x="206" y="93" as="targetPoint"/>
                        <Array as="points">
                            <mxPoint x="52" y="93"/>
                        </Array>
                    </mxGeometry>
                </mxCell>
                <mxCell id="96" value="" style="ellipse;whiteSpace=wrap;html=1;strokeColor=#000000;strokeWidth=2;fillColor=none;" parent="101" vertex="1">
                    <mxGeometry x="433" y="114" width="120" height="80" as="geometry"/>
                </mxCell>
                <mxCell id="103" value="" style="ellipse;whiteSpace=wrap;html=1;strokeColor=#000000;strokeWidth=2;fillColor=none;" parent="100" vertex="1">
                    <mxGeometry x="200" y="1150" width="120" height="80" as="geometry"/>
                </mxCell>
                <mxCell id="104" value="&lt;font style=&quot;font-size: 17px&quot;&gt;Show All Playlists&lt;br&gt;&lt;/font&gt;" style="text;html=1;strokeColor=none;fillColor=none;align=center;verticalAlign=middle;whiteSpace=wrap;rounded=0;fontColor=#000000;" parent="100" vertex="1">
                    <mxGeometry x="215" y="1153" width="90" height="74" as="geometry"/>
                </mxCell>
                <mxCell id="107" value="" style="ellipse;whiteSpace=wrap;html=1;strokeColor=#000000;strokeWidth=2;fillColor=none;" parent="100" vertex="1">
                    <mxGeometry x="200" y="1264" width="120" height="80" as="geometry"/>
                </mxCell>
                <mxCell id="108" value="&lt;font style=&quot;font-size: 17px&quot;&gt;Read a playlist&lt;br&gt;&lt;/font&gt;" style="text;html=1;strokeColor=none;fillColor=none;align=center;verticalAlign=middle;whiteSpace=wrap;rounded=0;fontColor=#000000;" parent="100" vertex="1">
                    <mxGeometry x="215" y="1267" width="90" height="74" as="geometry"/>
                </mxCell>
                <mxCell id="109" style="edgeStyle=none;html=1;exitX=0.5;exitY=0;exitDx=0;exitDy=0;fontSize=15;fontColor=#000000;strokeColor=#000000;strokeWidth=1;endArrow=none;endFill=0;" parent="100" edge="1">
                    <mxGeometry relative="1" as="geometry">
                        <mxPoint x="259.78999999999985" y="1263.9999999999998" as="sourcePoint"/>
                        <mxPoint x="260.0300000000001" y="1230" as="targetPoint"/>
                    </mxGeometry>
                </mxCell>
                <mxCell id="113" style="edgeStyle=none;html=1;exitX=0;exitY=0.5;exitDx=0;exitDy=0;entryX=1;entryY=0.5;entryDx=0;entryDy=0;fontSize=15;fontColor=#000000;endArrow=none;endFill=0;strokeColor=#000000;strokeWidth=1;" parent="100" source="110" target="107" edge="1">
                    <mxGeometry relative="1" as="geometry"/>
                </mxCell>
                <mxCell id="110" value="" style="ellipse;whiteSpace=wrap;html=1;strokeColor=#000000;strokeWidth=2;fillColor=none;" parent="100" vertex="1">
                    <mxGeometry x="348" y="1264" width="120" height="80" as="geometry"/>
                </mxCell>
                <mxCell id="111" value="&lt;font style=&quot;font-size: 17px&quot;&gt;Remove video from playlist&lt;br&gt;&lt;/font&gt;" style="text;html=1;strokeColor=none;fillColor=none;align=center;verticalAlign=middle;whiteSpace=wrap;rounded=0;fontColor=#000000;" parent="100" vertex="1">
                    <mxGeometry x="363" y="1267" width="90" height="74" as="geometry"/>
                </mxCell>
                <mxCell id="114" style="edgeStyle=none;html=1;exitX=0.569;exitY=-0.023;exitDx=0;exitDy=0;entryX=0;entryY=0.5;entryDx=0;entryDy=0;fontSize=25;fontColor=#000000;strokeColor=#000000;strokeWidth=2;dashed=1;exitPerimeter=0;" parent="100" source="110" target="116" edge="1">
                    <mxGeometry relative="1" as="geometry">
                        <mxPoint x="354.99999999999454" y="1252" as="sourcePoint"/>
                    </mxGeometry>
                </mxCell>
                <mxCell id="115" value="&lt;font style=&quot;font-size: 17px&quot;&gt;&amp;lt;&amp;lt;include&amp;gt;&amp;gt;&lt;/font&gt;" style="edgeLabel;html=1;align=center;verticalAlign=middle;resizable=0;points=[];fontSize=25;fontColor=#000000;labelBackgroundColor=#FFFFFF;rotation=0;" parent="114" vertex="1" connectable="0">
                    <mxGeometry x="-0.1401" relative="1" as="geometry">
                        <mxPoint as="offset"/>
                    </mxGeometry>
                </mxCell>
                <mxCell id="116" value="" style="ellipse;whiteSpace=wrap;html=1;labelBackgroundColor=#FFFFFF;fontSize=17;fontColor=#000000;strokeColor=#000000;strokeWidth=2;fillColor=none;" parent="100" vertex="1">
                    <mxGeometry x="502" y="1150" width="120" height="80" as="geometry"/>
                </mxCell>
                <mxCell id="117" value="&lt;span style=&quot;font-size: 17px&quot;&gt;Remove video from disk&lt;/span&gt;" style="text;html=1;strokeColor=none;fillColor=none;align=center;verticalAlign=middle;whiteSpace=wrap;rounded=0;fontColor=#000000;" parent="100" vertex="1">
                    <mxGeometry x="519" y="1150" width="90" height="74" as="geometry"/>
                </mxCell>
                <mxCell id="119" value="" style="ellipse;whiteSpace=wrap;html=1;strokeColor=#000000;strokeWidth=2;fillColor=none;" vertex="1" parent="100">
                    <mxGeometry x="200" y="1388" width="120" height="80" as="geometry"/>
                </mxCell>
                <mxCell id="120" value="&lt;font style=&quot;font-size: 17px&quot;&gt;Show likes playlist&lt;br&gt;&lt;/font&gt;" style="text;html=1;strokeColor=none;fillColor=none;align=center;verticalAlign=middle;whiteSpace=wrap;rounded=0;fontColor=#000000;" vertex="1" parent="100">
                    <mxGeometry x="215" y="1391" width="90" height="74" as="geometry"/>
                </mxCell>
                <mxCell id="164" value="" style="ellipse;whiteSpace=wrap;html=1;strokeColor=#000000;strokeWidth=2;fillColor=none;" vertex="1" parent="100">
                    <mxGeometry x="200" y="1502" width="120" height="80" as="geometry"/>
                </mxCell>
                <mxCell id="165" value="&lt;font style=&quot;font-size: 17px&quot;&gt;Read&amp;nbsp; playlist&lt;br&gt;&lt;/font&gt;" style="text;html=1;strokeColor=none;fillColor=none;align=center;verticalAlign=middle;whiteSpace=wrap;rounded=0;fontColor=#000000;" vertex="1" parent="100">
                    <mxGeometry x="215" y="1505" width="90" height="74" as="geometry"/>
                </mxCell>
                <mxCell id="166" style="edgeStyle=none;html=1;exitX=0.5;exitY=0;exitDx=0;exitDy=0;fontSize=15;fontColor=#000000;strokeColor=#000000;strokeWidth=1;endArrow=none;endFill=0;" edge="1" parent="100">
                    <mxGeometry relative="1" as="geometry">
                        <mxPoint x="259.78999999999996" y="1501.9999999999998" as="sourcePoint"/>
                        <mxPoint x="260.0300000000002" y="1468" as="targetPoint"/>
                    </mxGeometry>
                </mxCell>
                <mxCell id="167" style="edgeStyle=none;html=1;exitX=0;exitY=0.5;exitDx=0;exitDy=0;entryX=1;entryY=0.5;entryDx=0;entryDy=0;fontSize=15;fontColor=#000000;endArrow=none;endFill=0;strokeColor=#000000;strokeWidth=1;" edge="1" parent="100">
                    <mxGeometry relative="1" as="geometry">
                        <mxPoint x="348.0000000000025" y="1541.9999999999998" as="sourcePoint"/>
                        <mxPoint x="320" y="1541.9999999999998" as="targetPoint"/>
                    </mxGeometry>
                </mxCell>
                <mxCell id="168" value="&lt;font style=&quot;font-size: 13px&quot;&gt;Remove video /audio from likes&lt;br style=&quot;font-size: 13px&quot;&gt;&lt;/font&gt;" style="text;html=1;strokeColor=none;fillColor=none;align=center;verticalAlign=middle;whiteSpace=wrap;rounded=0;fontColor=#000000;fontSize=13;" vertex="1" parent="100">
                    <mxGeometry x="363" y="1505" width="90" height="74" as="geometry"/>
                </mxCell>
                <mxCell id="169" style="edgeStyle=none;html=1;exitX=0.569;exitY=-0.023;exitDx=0;exitDy=0;entryX=0;entryY=0.5;entryDx=0;entryDy=0;fontSize=25;fontColor=#000000;strokeColor=#000000;strokeWidth=2;dashed=1;exitPerimeter=0;" edge="1" parent="100" target="171">
                    <mxGeometry relative="1" as="geometry">
                        <mxPoint x="416.2800000000002" y="1500.16" as="sourcePoint"/>
                    </mxGeometry>
                </mxCell>
                <mxCell id="170" value="&lt;font style=&quot;font-size: 17px&quot;&gt;&amp;lt;&amp;lt;include&amp;gt;&amp;gt;&lt;/font&gt;" style="edgeLabel;html=1;align=center;verticalAlign=middle;resizable=0;points=[];fontSize=25;fontColor=#000000;labelBackgroundColor=#FFFFFF;rotation=0;" vertex="1" connectable="0" parent="169">
                    <mxGeometry x="-0.1401" relative="1" as="geometry">
                        <mxPoint as="offset"/>
                    </mxGeometry>
                </mxCell>
                <mxCell id="171" value="" style="ellipse;whiteSpace=wrap;html=1;labelBackgroundColor=#FFFFFF;fontSize=17;fontColor=#000000;strokeColor=#000000;strokeWidth=2;fillColor=none;" vertex="1" parent="100">
                    <mxGeometry x="502" y="1388" width="120" height="80" as="geometry"/>
                </mxCell>
                <mxCell id="172" value="&lt;span style=&quot;font-size: 17px&quot;&gt;Remove from local data&lt;br&gt;&lt;/span&gt;" style="text;html=1;strokeColor=none;fillColor=none;align=center;verticalAlign=middle;whiteSpace=wrap;rounded=0;fontColor=#000000;" vertex="1" parent="100">
                    <mxGeometry x="514" y="1388" width="90" height="74" as="geometry"/>
                </mxCell>
                <mxCell id="12" style="edgeStyle=none;html=1;exitX=1;exitY=0.3333333333333333;exitDx=0;exitDy=0;exitPerimeter=0;entryX=0;entryY=0.5;entryDx=0;entryDy=0;fontColor=#000000;strokeColor=#000000;strokeWidth=2;" parent="1" source="3" target="5" edge="1">
                    <mxGeometry relative="1" as="geometry">
                        <Array as="points">
                            <mxPoint x="174" y="437"/>
                            <mxPoint x="174" y="139"/>
                        </Array>
                    </mxGeometry>
                </mxCell>
                <mxCell id="34" style="edgeStyle=none;html=1;exitX=1;exitY=0.3333333333333333;exitDx=0;exitDy=0;exitPerimeter=0;entryX=0;entryY=0.5;entryDx=0;entryDy=0;fontSize=17;fontColor=#000000;strokeColor=#000000;strokeWidth=2;" parent="1" source="3" target="22" edge="1">
                    <mxGeometry relative="1" as="geometry">
                        <Array as="points">
                            <mxPoint x="191" y="438"/>
                            <mxPoint x="191" y="411"/>
                        </Array>
                    </mxGeometry>
                </mxCell>
                <mxCell id="3" value="Customer" style="shape=umlActor;verticalLabelPosition=bottom;verticalAlign=top;html=1;strokeColor=#000000;strokeWidth=2;fillColor=none;fontColor=#000000;" parent="1" vertex="1">
                    <mxGeometry x="80" y="418" width="30" height="60" as="geometry"/>
                </mxCell>
                <mxCell id="4" value="" style="shape=cube;whiteSpace=wrap;html=1;boundedLbl=1;backgroundOutline=1;darkOpacity=0.05;darkOpacity2=0.1;strokeColor=#000000;strokeWidth=2;fillColor=none;" parent="1" vertex="1">
                    <mxGeometry x="1068.25" y="349" width="202.5" height="135" as="geometry"/>
                </mxCell>
                <mxCell id="5" value="" style="ellipse;whiteSpace=wrap;html=1;strokeColor=#000000;strokeWidth=2;fillColor=none;" parent="1" vertex="1">
                    <mxGeometry x="254" y="99" width="120" height="80" as="geometry"/>
                </mxCell>
                <mxCell id="6" value="" style="ellipse;whiteSpace=wrap;html=1;strokeColor=#000000;strokeWidth=2;fillColor=none;" parent="1" vertex="1">
                    <mxGeometry x="254" y="239" width="120" height="80" as="geometry"/>
                </mxCell>
                <mxCell id="57" style="edgeStyle=none;html=1;exitX=0.5;exitY=0;exitDx=0;exitDy=0;fontSize=15;fontColor=#000000;strokeColor=#000000;strokeWidth=1;endArrow=none;endFill=0;" parent="1" source="7" target="5" edge="1">
                    <mxGeometry relative="1" as="geometry"/>
                </mxCell>
                <mxCell id="7" value="&lt;font style=&quot;font-size: 17px&quot;&gt;Accept Terms of Service&lt;/font&gt;" style="text;html=1;strokeColor=none;fillColor=none;align=center;verticalAlign=middle;whiteSpace=wrap;rounded=0;fontColor=#000000;" parent="1" vertex="1">
                    <mxGeometry x="269" y="239" width="90" height="74" as="geometry"/>
                </mxCell>
                <mxCell id="10" value="" style="endArrow=none;html=1;fontColor=#000000;" parent="1" edge="1">
                    <mxGeometry width="50" height="50" relative="1" as="geometry">
                        <mxPoint x="574" y="427" as="sourcePoint"/>
                        <mxPoint x="624" y="377" as="targetPoint"/>
                    </mxGeometry>
                </mxCell>
                <mxCell id="21" value="&lt;font style=&quot;font-size: 17px&quot;&gt;Install software&lt;/font&gt;" style="text;html=1;strokeColor=none;fillColor=none;align=center;verticalAlign=middle;whiteSpace=wrap;rounded=0;fontColor=#000000;" parent="1" vertex="1">
                    <mxGeometry x="284" y="124" width="60" height="30" as="geometry"/>
                </mxCell>
                <mxCell id="40" style="edgeStyle=none;html=1;exitX=1;exitY=0.5;exitDx=0;exitDy=0;entryX=0;entryY=0.5;entryDx=0;entryDy=0;fontSize=25;fontColor=#000000;strokeColor=#000000;strokeWidth=2;dashed=1;" parent="1" source="22" target="36" edge="1">
                    <mxGeometry relative="1" as="geometry"/>
                </mxCell>
                <mxCell id="41" value="&lt;font style=&quot;font-size: 17px&quot;&gt;&amp;lt;&amp;lt;include&amp;gt;&amp;gt;&lt;/font&gt;" style="edgeLabel;html=1;align=center;verticalAlign=middle;resizable=0;points=[];fontSize=25;fontColor=#000000;labelBackgroundColor=#FFFFFF;rotation=0;" parent="40" vertex="1" connectable="0">
                    <mxGeometry x="-0.1401" relative="1" as="geometry">
                        <mxPoint as="offset"/>
                    </mxGeometry>
                </mxCell>
                <mxCell id="22" value="" style="ellipse;whiteSpace=wrap;html=1;strokeColor=#000000;strokeWidth=2;fillColor=none;" parent="1" vertex="1">
                    <mxGeometry x="254" y="371" width="120" height="80" as="geometry"/>
                </mxCell>
                <mxCell id="28" style="edgeStyle=none;html=1;exitX=1;exitY=0.3333333333333333;exitDx=0;exitDy=0;exitPerimeter=0;entryX=0;entryY=0.5;entryDx=0;entryDy=0;fontColor=#000000;strokeColor=#000000;strokeWidth=2;" parent="1" source="3" target="5" edge="1">
                    <mxGeometry relative="1" as="geometry">
                        <mxPoint x="110" y="438" as="sourcePoint"/>
                        <mxPoint x="254" y="139" as="targetPoint"/>
                        <Array as="points">
                            <mxPoint x="174" y="437"/>
                            <mxPoint x="174" y="139"/>
                        </Array>
                    </mxGeometry>
                </mxCell>
                <mxCell id="31" value="&lt;font style=&quot;font-size: 17px&quot;&gt;Create Playlist&lt;/font&gt;" style="text;html=1;strokeColor=none;fillColor=none;align=center;verticalAlign=middle;whiteSpace=wrap;rounded=0;fontColor=#000000;" parent="1" vertex="1">
                    <mxGeometry x="269" y="371" width="90" height="74" as="geometry"/>
                </mxCell>
                <mxCell id="36" value="" style="ellipse;whiteSpace=wrap;html=1;labelBackgroundColor=#FFFFFF;fontSize=17;fontColor=#000000;strokeColor=#000000;strokeWidth=2;fillColor=none;" parent="1" vertex="1">
                    <mxGeometry x="521" y="309" width="120" height="80" as="geometry"/>
                </mxCell>
                <mxCell id="37" value="&lt;span style=&quot;font-size: 17px&quot;&gt;ADD New playlist to local data&lt;/span&gt;" style="text;html=1;strokeColor=none;fillColor=none;align=center;verticalAlign=middle;whiteSpace=wrap;rounded=0;fontColor=#000000;" parent="1" vertex="1">
                    <mxGeometry x="538" y="309" width="90" height="74" as="geometry"/>
                </mxCell>
                <mxCell id="38" value="&lt;font style=&quot;font-size: 25px&quot;&gt;Software&lt;br&gt;( system )&lt;br&gt;&lt;/font&gt;" style="text;html=1;strokeColor=none;fillColor=none;align=center;verticalAlign=middle;whiteSpace=wrap;rounded=0;fontColor=#000000;" parent="1" vertex="1">
                    <mxGeometry x="1121.25" y="385" width="118" height="74" as="geometry"/>
                </mxCell>
                <mxCell id="45" style="edgeStyle=none;html=1;exitX=0;exitY=0.5;exitDx=0;exitDy=0;entryX=0.941;entryY=0.737;entryDx=0;entryDy=0;entryPerimeter=0;dashed=1;fontSize=15;fontColor=#000000;strokeColor=#000000;strokeWidth=2;" parent="1" source="43" target="22" edge="1">
                    <mxGeometry relative="1" as="geometry"/>
                </mxCell>
                <mxCell id="46" value="&amp;lt;&amp;lt;Extend&amp;gt;&amp;gt;" style="edgeLabel;html=1;align=center;verticalAlign=middle;resizable=0;points=[];fontSize=15;fontColor=#000000;labelBackgroundColor=#FFFFFF;" parent="45" vertex="1" connectable="0">
                    <mxGeometry x="0.1518" relative="1" as="geometry">
                        <mxPoint as="offset"/>
                    </mxGeometry>
                </mxCell>
                <mxCell id="43" value="" style="ellipse;whiteSpace=wrap;html=1;strokeColor=#000000;strokeWidth=2;fillColor=none;" parent="1" vertex="1">
                    <mxGeometry x="523" y="421" width="120" height="80" as="geometry"/>
                </mxCell>
                <mxCell id="44" value="&lt;font style=&quot;font-size: 15px&quot;&gt;Display error &quot;playlist already exist&quot;&lt;/font&gt;" style="text;html=1;strokeColor=none;fillColor=none;align=center;verticalAlign=middle;whiteSpace=wrap;rounded=0;fontColor=#000000;" parent="1" vertex="1">
                    <mxGeometry x="528" y="429.5" width="114" height="63" as="geometry"/>
                </mxCell>
                <mxCell id="49" style="edgeStyle=none;html=1;entryX=1;entryY=0.5;entryDx=0;entryDy=0;fontSize=25;fontColor=#000000;strokeColor=#000000;strokeWidth=2;" parent="1" target="36" edge="1">
                    <mxGeometry relative="1" as="geometry">
                        <mxPoint x="816" y="391" as="sourcePoint"/>
                        <Array as="points">
                            <mxPoint x="740" y="391"/>
                            <mxPoint x="740" y="349"/>
                        </Array>
                    </mxGeometry>
                </mxCell>
                <mxCell id="50" style="edgeStyle=none;html=1;exitX=0.008;exitY=0.325;exitDx=0;exitDy=0;exitPerimeter=0;entryX=0.993;entryY=0.524;entryDx=0;entryDy=0;fontSize=25;fontColor=#000000;strokeColor=#000000;strokeWidth=2;entryPerimeter=0;" parent="1" source="4" target="43" edge="1">
                    <mxGeometry relative="1" as="geometry">
                        <mxPoint x="817" y="441.5" as="sourcePoint"/>
                        <mxPoint x="641" y="350.0000000000001" as="targetPoint"/>
                        <Array as="points">
                            <mxPoint x="740" y="391"/>
                            <mxPoint x="740" y="463"/>
                        </Array>
                    </mxGeometry>
                </mxCell>
                <mxCell id="51" value="" style="ellipse;whiteSpace=wrap;html=1;strokeColor=#000000;strokeWidth=2;fillColor=none;" parent="1" vertex="1">
                    <mxGeometry x="254" y="516" width="120" height="80" as="geometry"/>
                </mxCell>
                <mxCell id="52" value="&lt;font style=&quot;font-size: 17px&quot;&gt;Download&lt;br&gt;video / audio&lt;br&gt;&lt;/font&gt;" style="text;html=1;strokeColor=none;fillColor=none;align=center;verticalAlign=middle;whiteSpace=wrap;rounded=0;fontColor=#000000;" parent="1" vertex="1">
                    <mxGeometry x="269" y="519" width="90" height="74" as="geometry"/>
                </mxCell>
                <mxCell id="55" style="edgeStyle=none;html=1;entryX=-0.012;entryY=0.477;entryDx=0;entryDy=0;fontSize=17;fontColor=#000000;strokeColor=#000000;strokeWidth=2;entryPerimeter=0;" parent="1" target="51" edge="1">
                    <mxGeometry relative="1" as="geometry">
                        <mxPoint x="141" y="438" as="sourcePoint"/>
                        <mxPoint x="264" y="421" as="targetPoint"/>
                        <Array as="points">
                            <mxPoint x="208" y="438"/>
                            <mxPoint x="208" y="554"/>
                        </Array>
                    </mxGeometry>
                </mxCell>
                <mxCell id="56" value="" style="ellipse;whiteSpace=wrap;html=1;strokeColor=#000000;strokeWidth=2;fillColor=none;" parent="1" vertex="1">
                    <mxGeometry x="254" y="629" width="120" height="80" as="geometry"/>
                </mxCell>
                <mxCell id="58" style="edgeStyle=none;html=1;exitX=0.5;exitY=0;exitDx=0;exitDy=0;fontSize=15;fontColor=#000000;strokeColor=#000000;strokeWidth=1;endArrow=none;endFill=0;" parent="1" edge="1">
                    <mxGeometry relative="1" as="geometry">
                        <mxPoint x="313.76" y="629" as="sourcePoint"/>
                        <mxPoint x="314" y="595" as="targetPoint"/>
                    </mxGeometry>
                </mxCell>
                <mxCell id="59" value="&lt;font style=&quot;font-size: 17px&quot;&gt;Enter url&lt;br&gt;&lt;/font&gt;" style="text;html=1;strokeColor=none;fillColor=none;align=center;verticalAlign=middle;whiteSpace=wrap;rounded=0;fontColor=#000000;" parent="1" vertex="1">
                    <mxGeometry x="269" y="632" width="90" height="74" as="geometry"/>
                </mxCell>
                <mxCell id="64" value="" style="ellipse;whiteSpace=wrap;html=1;strokeColor=#000000;strokeWidth=2;fillColor=none;" parent="1" vertex="1">
                    <mxGeometry x="254" y="743" width="120" height="80" as="geometry"/>
                </mxCell>
                <mxCell id="65" style="edgeStyle=none;html=1;exitX=0.5;exitY=0;exitDx=0;exitDy=0;fontSize=15;fontColor=#000000;strokeColor=#000000;strokeWidth=1;endArrow=none;endFill=0;" parent="1" edge="1">
                    <mxGeometry relative="1" as="geometry">
                        <mxPoint x="313.76" y="743" as="sourcePoint"/>
                        <mxPoint x="314" y="709" as="targetPoint"/>
                    </mxGeometry>
                </mxCell>
                <mxCell id="66" value="&lt;font style=&quot;font-size: 17px&quot;&gt;Choose video quality&lt;br&gt;&lt;/font&gt;" style="text;html=1;strokeColor=none;fillColor=none;align=center;verticalAlign=middle;whiteSpace=wrap;rounded=0;fontColor=#000000;" parent="1" vertex="1">
                    <mxGeometry x="269" y="746" width="90" height="74" as="geometry"/>
                </mxCell>
                <mxCell id="69" value="" style="ellipse;whiteSpace=wrap;html=1;strokeColor=#000000;strokeWidth=2;fillColor=none;" parent="1" vertex="1">
                    <mxGeometry x="254" y="856" width="120" height="80" as="geometry"/>
                </mxCell>
                <mxCell id="70" value="&lt;font style=&quot;font-size: 17px&quot;&gt;Choose playlist&amp;nbsp;&lt;br&gt;&lt;/font&gt;" style="text;html=1;strokeColor=none;fillColor=none;align=center;verticalAlign=middle;whiteSpace=wrap;rounded=0;fontColor=#000000;" parent="1" vertex="1">
                    <mxGeometry x="269" y="859" width="90" height="74" as="geometry"/>
                </mxCell>
                <mxCell id="71" style="edgeStyle=none;html=1;exitX=0.5;exitY=0;exitDx=0;exitDy=0;fontSize=15;fontColor=#000000;strokeColor=#000000;strokeWidth=1;endArrow=none;endFill=0;" parent="1" edge="1">
                    <mxGeometry relative="1" as="geometry">
                        <mxPoint x="313.7" y="857" as="sourcePoint"/>
                        <mxPoint x="313.94" y="823" as="targetPoint"/>
                    </mxGeometry>
                </mxCell>
                <mxCell id="72" value="" style="ellipse;whiteSpace=wrap;html=1;labelBackgroundColor=#FFFFFF;fontSize=17;fontColor=#000000;strokeColor=#000000;strokeWidth=2;fillColor=none;" parent="1" vertex="1">
                    <mxGeometry x="519" y="516" width="120" height="80" as="geometry"/>
                </mxCell>
                <mxCell id="73" value="&lt;span style=&quot;font-size: 17px&quot;&gt;Get video from API&lt;/span&gt;" style="text;html=1;strokeColor=none;fillColor=none;align=center;verticalAlign=middle;whiteSpace=wrap;rounded=0;fontColor=#000000;" parent="1" vertex="1">
                    <mxGeometry x="522" y="525" width="117" height="74" as="geometry"/>
                </mxCell>
                <mxCell id="74" style="edgeStyle=none;html=1;exitX=1;exitY=0.5;exitDx=0;exitDy=0;entryX=0;entryY=0.5;entryDx=0;entryDy=0;fontSize=25;fontColor=#000000;strokeColor=#000000;strokeWidth=2;dashed=1;" parent="1" target="72" edge="1">
                    <mxGeometry relative="1" as="geometry">
                        <mxPoint x="374" y="554.5" as="sourcePoint"/>
                        <mxPoint x="520.9999999999998" y="492.5" as="targetPoint"/>
                    </mxGeometry>
                </mxCell>
                <mxCell id="75" value="&lt;font style=&quot;font-size: 17px&quot;&gt;&amp;lt;&amp;lt;include&amp;gt;&amp;gt;&lt;/font&gt;" style="edgeLabel;html=1;align=center;verticalAlign=middle;resizable=0;points=[];fontSize=25;fontColor=#000000;labelBackgroundColor=#FFFFFF;rotation=0;" parent="74" vertex="1" connectable="0">
                    <mxGeometry x="-0.1401" relative="1" as="geometry">
                        <mxPoint x="3" y="-2" as="offset"/>
                    </mxGeometry>
                </mxCell>
                <mxCell id="76" style="edgeStyle=none;html=1;exitX=0.008;exitY=0.325;exitDx=0;exitDy=0;exitPerimeter=0;fontSize=25;fontColor=#000000;strokeColor=#000000;strokeWidth=2;entryX=1;entryY=0.5;entryDx=0;entryDy=0;" parent="1" source="4" target="73" edge="1">
                    <mxGeometry relative="1" as="geometry">
                        <mxPoint x="817" y="441.5" as="sourcePoint"/>
                        <mxPoint x="694" y="562" as="targetPoint"/>
                        <Array as="points">
                            <mxPoint x="740" y="391"/>
                            <mxPoint x="740" y="562"/>
                        </Array>
                    </mxGeometry>
                </mxCell>
                <mxCell id="77" value="" style="shape=cube;whiteSpace=wrap;html=1;boundedLbl=1;backgroundOutline=1;darkOpacity=0.05;darkOpacity2=0.1;strokeColor=#000000;strokeWidth=2;fillColor=none;" parent="1" vertex="1">
                    <mxGeometry x="865.75" y="644" width="202.5" height="135" as="geometry"/>
                </mxCell>
                <mxCell id="78" value="&lt;font style=&quot;font-size: 25px&quot;&gt;API&lt;br&gt;( Backend )&lt;br&gt;&lt;/font&gt;" style="text;html=1;strokeColor=none;fillColor=none;align=center;verticalAlign=middle;whiteSpace=wrap;rounded=0;fontColor=#000000;" parent="1" vertex="1">
                    <mxGeometry x="908.75" y="682.5" width="130" height="74" as="geometry"/>
                </mxCell>
                <mxCell id="79" style="edgeStyle=none;html=1;exitX=0.5;exitY=1;exitDx=0;exitDy=0;fontSize=25;fontColor=#000000;strokeColor=#000000;strokeWidth=2;dashed=1;entryX=0.208;entryY=0.007;entryDx=0;entryDy=0;entryPerimeter=0;" parent="1" source="73" target="82" edge="1">
                    <mxGeometry relative="1" as="geometry">
                        <mxPoint x="552" y="662" as="sourcePoint"/>
                        <mxPoint x="697" y="663.5" as="targetPoint"/>
                    </mxGeometry>
                </mxCell>
                <mxCell id="80" value="&lt;font style=&quot;font-size: 17px&quot;&gt;&amp;lt;&amp;lt;include&amp;gt;&amp;gt;&lt;/font&gt;" style="edgeLabel;html=1;align=center;verticalAlign=middle;resizable=0;points=[];fontSize=25;fontColor=#000000;labelBackgroundColor=#FFFFFF;rotation=-30;" parent="79" vertex="1" connectable="0">
                    <mxGeometry x="-0.1401" relative="1" as="geometry">
                        <mxPoint x="1" as="offset"/>
                    </mxGeometry>
                </mxCell>
                <mxCell id="81" value="" style="ellipse;whiteSpace=wrap;html=1;labelBackgroundColor=#FFFFFF;fontSize=17;fontColor=#000000;strokeColor=#000000;strokeWidth=2;fillColor=none;" parent="1" vertex="1">
                    <mxGeometry x="613" y="641" width="120" height="80" as="geometry"/>
                </mxCell>
                <mxCell id="82" value="&lt;span style=&quot;font-size: 17px&quot;&gt;Send video&lt;/span&gt;" style="text;html=1;strokeColor=none;fillColor=none;align=center;verticalAlign=middle;whiteSpace=wrap;rounded=0;fontColor=#000000;" parent="1" vertex="1">
                    <mxGeometry x="616" y="644" width="117" height="74" as="geometry"/>
                </mxCell>
                <mxCell id="84" style="edgeStyle=none;html=1;entryX=1.018;entryY=0.568;entryDx=0;entryDy=0;fontSize=25;fontColor=#000000;strokeColor=#000000;strokeWidth=2;entryPerimeter=0;exitX=-0.015;exitY=0.316;exitDx=0;exitDy=0;exitPerimeter=0;" parent="1" source="77" target="82" edge="1">
                    <mxGeometry relative="1" as="geometry">
                        <mxPoint x="831" y="686" as="sourcePoint"/>
                        <mxPoint x="656" y="644" as="targetPoint"/>
                        <Array as="points">
                            <mxPoint x="755" y="686"/>
                        </Array>
                    </mxGeometry>
                </mxCell>
                <mxCell id="102" style="edgeStyle=none;html=1;entryX=0;entryY=0.5;entryDx=0;entryDy=0;fontSize=17;fontColor=#000000;strokeColor=#000000;strokeWidth=2;" parent="1" target="85" edge="1">
                    <mxGeometry relative="1" as="geometry">
                        <mxPoint x="142.44" y="438" as="sourcePoint"/>
                        <mxPoint x="253.99999999999972" y="554.1600000000001" as="targetPoint"/>
                        <Array as="points">
                            <mxPoint x="196" y="438"/>
                            <mxPoint x="196" y="1020"/>
                        </Array>
                    </mxGeometry>
                </mxCell>
                <mxCell id="105" style="edgeStyle=none;html=1;entryX=0;entryY=0.5;entryDx=0;entryDy=0;fontSize=17;fontColor=#000000;strokeColor=#000000;strokeWidth=2;" parent="1" target="103" edge="1">
                    <mxGeometry relative="1" as="geometry">
                        <mxPoint x="142.44000000000005" y="438" as="sourcePoint"/>
                        <mxPoint x="362" y="1020" as="targetPoint"/>
                        <Array as="points">
                            <mxPoint x="196" y="438"/>
                            <mxPoint x="196" y="1265"/>
                        </Array>
                    </mxGeometry>
                </mxCell>
                <mxCell id="118" style="edgeStyle=none;html=1;fontSize=25;fontColor=#000000;strokeColor=#000000;strokeWidth=2;exitX=0;exitY=0;exitDx=111.25;exitDy=135;exitPerimeter=0;" parent="1" source="4" edge="1">
                    <mxGeometry relative="1" as="geometry">
                        <mxPoint x="819" y="393" as="sourcePoint"/>
                        <mxPoint x="776" y="1251" as="targetPoint"/>
                        <Array as="points">
                            <mxPoint x="1180" y="1251"/>
                            <mxPoint x="846" y="1251"/>
                        </Array>
                    </mxGeometry>
                </mxCell>
                <mxCell id="163" style="edgeStyle=none;html=1;entryX=0;entryY=0.5;entryDx=0;entryDy=0;fontSize=17;fontColor=#000000;strokeColor=#000000;strokeWidth=2;" edge="1" parent="1" target="119">
                    <mxGeometry relative="1" as="geometry">
                        <mxPoint x="142.44000000000005" y="438" as="sourcePoint"/>
                        <mxPoint x="359" y="1265" as="targetPoint"/>
                        <Array as="points">
                            <mxPoint x="196" y="438"/>
                            <mxPoint x="196" y="1503"/>
                        </Array>
                    </mxGeometry>
                </mxCell>
                <mxCell id="174" style="edgeStyle=none;html=1;fontSize=25;fontColor=#000000;strokeColor=#000000;strokeWidth=2;exitX=0;exitY=0;exitDx=111.25;exitDy=135;exitPerimeter=0;entryX=1;entryY=0.5;entryDx=0;entryDy=0;" edge="1" parent="1" target="171">
                    <mxGeometry relative="1" as="geometry">
                        <mxPoint x="1179.5" y="484" as="sourcePoint"/>
                        <mxPoint x="776" y="1251" as="targetPoint"/>
                        <Array as="points">
                            <mxPoint x="1180" y="1503"/>
                            <mxPoint x="966" y="1503"/>
                        </Array>
                    </mxGeometry>
                </mxCell>
            </root>
        </mxGraphModel>
    </diagram>
</mxfile>